<?xml version="1.0" encoding="utf-8"?>
<!-- Generator: Adobe Illustrator 16.0.1, SVG Export Plug-In . SVG Version: 6.00 Build 0)  -->
<!DOCTYPE svg PUBLIC "-//W3C//DTD SVG 1.1//EN" "http://www.w3.org/Graphics/SVG/1.1/DTD/svg11.dtd">
<svg version="1.1" id="Layer_1" xmlns="http://www.w3.org/2000/svg" xmlns:xlink="http://www.w3.org/1999/xlink" x="0px" y="0px"
	 width="33.809px" height="25px" viewBox="227 310.377 26.537 19.623" enable-background="new 227 310.377 26.537 19.623"
	 xml:space="preserve">
<g>
	<g>
		<defs>
			<rect id="SVGID_1_" x="227" y="310.377" width="33.809px" height="25px"/>
		</defs>
		<clipPath id="SVGID_2_">
			<use xlink:href="#SVGID_1_"  overflow="visible"/>
		</clipPath>
		<path clip-path="url(#SVGID_2_)" fill="#231F20" d="M252.339,310.386l0.888,1.11c-3.595-0.09-8.653,2.129-9.719,5.856
			c1.064-0.532,2.086-0.844,3.284-0.844c3.771,0,6.745,3.107,6.745,6.834c0,3.817-3.062,6.657-6.834,6.657
			c-3.02,0-5.191-1.909-6.257-4.569h-0.089c-0.754,2.616-3.417,4.525-6.167,4.569c-4.483,0-7.19-3.64-7.19-7.897
			c0-6.701,5.992-11.981,12.559-11.717l0.887,1.11c-3.816-0.09-8.475,1.996-9.718,5.856c0.976-0.487,2.042-0.844,3.151-0.844
			c2.574,0,4.747,1.332,6.035,3.552c1.42-5.725,6.079-9.675,12.025-9.675h0.399V310.386z"/>
	</g>
</g>
</svg>
